<svg xmlns="http://www.w3.org/2000/svg" xmlns:xlink="http://www.w3.org/1999/xlink" height="50%" width="40%" viewBox="0 0 446.22 754.69"><defs><mask id="imask" fill="#fff"><path d="M375 449.5s3.11-1.67 8-3.9v-2c-23 0-23-47.69-2-60.13l2 1.24v-13.25c-19.19-3.85-25.89-46.54 0-66V54c0-20.88-4.06-33.87-13.15-42.11S346.49 0 323.53 0H154.47c-23 0-37.25 3.66-46.32 11.88S95 33.11 95 54v141.93A17.88 17.88 0 0 1 106.5 207c3.5 9.5 0 14 3 35 0 0 8.5 40.5-7.5 73.5 0 0 6 25 6 43s-6 45 0 63H95V491c0 20.88 4.06 33.87 13.15 42.11S131.51 545 154.47 545h169.06c23 0 37.25-3.66 46.32-11.88 8-7.3 12.15-18.33 13-35.26-32.85 4.65-28.66-38.7-7.85-48.36z" transform="translate(.46)"/></mask><clipPath id="ib"><path id="is" d="M328.1 523.77H154.2c-22.62 0-31-8.41-31-31v-449c0-20.24 9.43-28.49 32.55-28.49l15.82.25c2.78 0 4.19.56 4.19 3.64A14.67 14.67 0 0 0 190.55 34h101.2a14.67 14.67 0 0 0 14.82-14.81c0-3.08 1.41-3.64 4.2-3.64l15.81-.25c23.73 0 32.55 7.72 32.55 28.49v449c0 22.57-8.41 30.98-31.03 30.98z" transform="translate(.46)"/></clipPath><mask id="knockout"><use xlink:href="#is" fill="#000"/><text style="line-height:1.14286" font-family="Helvetica Neue" font-size="52" font-weight="600" letter-spacing=".007em"><tspan id="i1" x="160" y="32%" dy="1em">Hello :)</tspan> <tspan id="i2" x="28.5%" y="27%" dy="1em" visibility="hidden">Welcome</tspan> <tspan id="i3" x="48%" y="33%" dy="1em" visibility="hidden">to</tspan> <tspan id="i4" x="170" y="22%" dy="1em" display="none">Core</tspan> <tspan id="i5" x="170" y="32%" dy="1em" display="none">CODE</tspan> <tspan id="i6" x="170" y="42%" dy="1em" display="none">Craft</tspan> <tspan x="175" y="27%" dy="1em" visibility="hidden">We</tspan> <tspan x="175" y="37%" dy="1em" visibility="hidden">Build</tspan> <tspan x="125" y="22%" dy="1em" visibility="hidden">Custom</tspan> <tspan x="125" y="32%" dy="1em" visibility="hidden">Software</tspan> <tspan x="125" y="42%" dy="1em" visibility="hidden">Solutions</tspan></text><g id="plnt" visibility="hidden" transform="matrix(3 0 0 3 143 155)"><g fill="#fff"><path d="M51.1 42.3c-.8 8.8-7.8 15.9-16.7 16.7-3 2.6-6.1 4.9-9 6.9 2.3.7 4.8 1.1 7.4 1.1C47.3 67 59 55.2 59 40.8c0-2.6-.4-5-1.1-7.4-1.9 2.9-4.2 5.9-6.8 8.9z"/><path d="M63.6 9.5c-4.5-4-13.3.1-19.9 4.2-.8.5-1.7 1.1-2.5 1.7 2 .6 3.9 1.5 5.7 2.6 6.3-3.9 10-4.8 11.9-4.8.7 0 1.2.1 1.3.3.4.4.9 2.7-1.9 8.5-3.6 7.3-10.6 16.4-19.1 25-8.6 8.6-17.7 15.5-25 19.1C8.2 68.9 6 68.4 5.6 68c-.6-.6-.9-4.4 4.6-13.2-1.1-1.8-2-3.7-2.6-5.7-.6.9-1.2 1.7-1.7 2.5C1.7 58.2-2.4 67 1.7 71.5c1.2 1.4 3 2.1 5.2 2.1 2.6 0 5.8-.9 9.6-2.8 7.8-3.8 17.4-11.2 26.4-20.1 8.9-8.9 16.3-18.6 20.1-26.4 3.4-7.2 3.6-12.1.6-14.8z"/><path d="M21.6 55.1c-4.3-3.4-7-8.6-7-14.4 0-10.1 8.2-18.3 18.3-18.3 5.8 0 11.1 2.8 14.4 7 1.7-2.3 3.3-4.6 4.6-6.7-4.8-5-11.5-8.2-19-8.2-14.5 0-26.2 11.8-26.2 26.2 0 7.5 3.2 14.2 8.2 19 2.2-1.3 4.4-2.8 6.7-4.6z"/></g><g stroke="#2D2D2D" stroke-width="10" fill="none"><path id="iant" clip-path="url(#iantcp)" d="M51.1 42.3c-.8 8.8-7.8 15.9-16.7 16.7-3 2.6-6.1 4.9-9 6.9 2.3.7 4.8 1.1 7.4 1.1C47.3 67 59 55.2 59 40.8c0-2.6-.4-5-1.1-7.4-1.9 2.9-4.2 5.9-6.8 8.9z"/><path id="irng" clip-path="url(#irngcp)" d="M63.6 9.5c-4.5-4-13.3.1-19.9 4.2-.8.5-1.7 1.1-2.5 1.7 2 .6 3.9 1.5 5.7 2.6 6.3-3.9 10-4.8 11.9-4.8.7 0 1.2.1 1.3.3.4.4.9 2.7-1.9 8.5-3.6 7.3-10.6 16.4-19.1 25-8.6 8.6-17.7 15.5-25 19.1C8.2 68.9 6 68.4 5.6 68c-.6-.6-.9-4.4 4.6-13.2-1.1-1.8-2-3.7-2.6-5.7-.6.9-1.2 1.7-1.7 2.5C1.7 58.2-2.4 67 1.7 71.5c1.2 1.4 3 2.1 5.2 2.1 2.6 0 5.8-.9 9.6-2.8 7.8-3.8 17.4-11.2 26.4-20.1 8.9-8.9 16.3-18.6 20.1-26.4 3.4-7.2 3.6-12.1.6-14.8z"/><path id="iarc" clip-path="url(#iarccp)" d="M21.6 55.1c-4.3-3.4-7-8.6-7-14.4 0-10.1 8.2-18.3 18.3-18.3 5.8 0 11.1 2.8 14.4 7 1.7-2.3 3.3-4.6 4.6-6.7-4.8-5-11.5-8.2-19-8.2-14.5 0-26.2 11.8-26.2 26.2 0 7.5 3.2 14.2 8.2 19 2.2-1.3 4.4-2.8 6.7-4.6z"/></g><path id="istr" d="M40.8 0c2.9 1.9 3.7 1.9 6.6 0-1.9 2.9-1.9 3.7 0 6.6-2.9-1.9-3.7-1.9-6.6 0 1.9-2.9 1.9-3.7 0-6.6z"/><g fill="none"><clipPath id="iantcp"><path id="iant" d="M51.1 42.3c-.8 8.8-7.8 15.9-16.7 16.7-3 2.6-6.1 4.9-9 6.9 2.3.7 4.8 1.1 7.4 1.1C47.3 67 59 55.2 59 40.8c0-2.6-.4-5-1.1-7.4-1.9 2.9-4.2 5.9-6.8 8.9z"/></clipPath><clipPath id="irngcp"><path id="irng" d="M63.6 9.5c-4.5-4-13.3.1-19.9 4.2-.8.5-1.7 1.1-2.5 1.7 2 .6 3.9 1.5 5.7 2.6 6.3-3.9 10-4.8 11.9-4.8.7 0 1.2.1 1.3.3.4.4.9 2.7-1.9 8.5-3.6 7.3-10.6 16.4-19.1 25-8.6 8.6-17.7 15.5-25 19.1C8.2 68.9 6 68.4 5.6 68c-.6-.6-.9-4.4 4.6-13.2-1.1-1.8-2-3.7-2.6-5.7-.6.9-1.2 1.7-1.7 2.5C1.7 58.2-2.4 67 1.7 71.5c1.2 1.4 3 2.1 5.2 2.1 2.6 0 5.8-.9 9.6-2.8 7.8-3.8 17.4-11.2 26.4-20.1 8.9-8.9 16.3-18.6 20.1-26.4 3.4-7.2 3.6-12.1.6-14.8z"/></clipPath><clipPath id="iarccp"><path id="iarc" d="M21.6 55.1c-4.3-3.4-7-8.6-7-14.4 0-10.1 8.2-18.3 18.3-18.3 5.8 0 11.1 2.8 14.4 7 1.7-2.3 3.3-4.6 4.6-6.7-4.8-5-11.5-8.2-19-8.2-14.5 0-26.2 11.8-26.2 26.2 0 7.5 3.2 14.2 8.2 19 2.2-1.3 4.4-2.8 6.7-4.6z"/></clipPath></g></g></mask></defs><g id="iphone" mask="url(#imask)"><use xlink:href="#is"/><image clip-path="url(#ib)" x="-820" y="-25" width="1920" height="1280" xlink:href="knockout.jpg"/><use xlink:href="#is" fill="#000" mask=""/><use xlink:href="#is" fill="none" stroke="#2D2D2D"/><path d="M319.43 539H162.87c-21.27 0-34.5-3.63-42.9-11.75s-12.17-21-12.17-41.65V53.4c0-20.66 3.75-33.5 12.17-41.65S141.6 0 162.87 0h156.56c21.27 0 34.5 3.62 42.9 11.75s12.18 21 12.18 41.65v432.22c0 20.65-3.76 33.5-12.18 41.65S340.7 539 319.43 539zM162.87.56c-40.76 0-54.52 13.33-54.52 52.84v432.22c0 39.5 13.76 52.84 54.52 52.84h156.56c40.76 0 54.52-13.34 54.52-52.84V53.4C374 13.89 360.19.56 319.43.56z" transform="translate(.46)"/><path d="M317.71 536.08H164.6c-20.76 0-33.67-3.57-41.86-11.59s-11.87-20.72-11.87-41.12V55.64c0-20.4 3.66-33.08 11.87-41.11s21.1-11.59 41.86-11.59h153.11c20.76 0 33.67 3.57 41.86 11.59s11.86 20.71 11.86 41.11v427.73c0 20.4-3.66 33.09-11.86 41.12s-21.1 11.59-41.86 11.59zM164.6 3.22c-40 0-53.45 13.22-53.45 52.42v427.73c0 39.2 13.49 52.43 53.45 52.43h153.11c40 0 53.44-13.23 53.44-52.43V55.64c0-39.2-13.48-52.42-53.44-52.42z" transform="translate(.46)"/><g fill="none" stroke="#2D2D2D"><rect x="225.68" y="19.19" width="31.87" height="3.91" rx="1.96" ry="1.96"/><circle stroke-width=".25" cx="270.59" cy="21.15" r="1.96"/><circle cx="270.59" cy="21.15" r="2.8"/></g><g opacity=".3"><path d="M107.55 160a5.61 5.61 0 0 0-1.68 4.32v31.29a5.61 5.61 0 0 0 1.68 4.32zM374.82 124.73c1 1.23 1.68 3.74 1.68 6.66v48.19c0 2.91-.68 5.43-1.68 6.66zM107.55 110.19a5.63 5.63 0 0 0-1.68 4.33v31.28a5.63 5.63 0 0 0 1.68 4.33zM107.55 73.85a2.41 2.41 0 0 0-1.68 2.15v15.51a2.41 2.41 0 0 0 1.68 2.14z" transform="translate(.46)"/></g></g><g id="hand" fill="none" stroke="#2D2D2D"><path class="cls-1" d="M0 752.5c32-80 44-103 58-168 3-27-29-120-26-147 0 0-4-14-1-28 0 0 12.81-69.26 18-103 6-39 13-31 20-61 0 0 1-28 6-53 0 0 9 6 12 14s-10 36-18 40" transform="translate(.46)"/><path d="M375 292.5c53-19 58-87 0-69M400.5 221.5c16.5-5 24.5 21 16.15 25.5M78.5 195s21.89-4.59 28 12c3.5 9.5 0 14 3 35 0 0 8.5 40.5-7.5 73.5 0 0 6 25 6 43s-6 45 0 63M381 383.5c-27.49 16.29-19 93 30 44a69.14 69.14 0 0 0 12-18c4-9-2-40-28-40" transform="translate(.46)"/><path d="M383 305.5c-36 27-9 99 27 49 0 0 14-23 6-36s-22-28-41-16M241 754.5c42.09-102.06 43-68 102.35-171.06C350.86 570.39 386 550.5 430 512.5c0 0 25-32 11-69-10-24-66 6-66 6-28 13-26 87 56 23" transform="translate(.46)"/><path d="M377 456.5c13.47 6.89 16.79 15.1 10.81 31.2 0 0 25.46-9.76 20.92-25.2s-31.73-6-31.73-6zM380 404.5c11 0 21 9 16 24 0 0 29.39-15.44 12-35-16-18-28 11-28 11zM383 322.5c16 0 23 16 17 27 0 0 19.44-13.31 2-28-19-16-19 1-19 1z" transform="translate(.46)"/></g></svg>
